<svg width="16" height="16" viewBox="0 0 16 16" fill="none" xmlns="http://www.w3.org/2000/svg">
<g clip-path="url(#clip0_3_152)">
<path d="M15.964 0.68605C16.0004 0.595186 16.0093 0.495646 15.9896 0.39977C15.9699 0.303893 15.9226 0.215897 15.8533 0.146691C15.7841 0.0774845 15.6961 0.030111 15.6003 0.0104435C15.5044 -0.00922396 15.4049 -0.000320453 15.314 0.0360502L0.766987 5.85505H0.765987L0.313987 6.03505C0.228377 6.0692 0.153872 6.12635 0.0987025 6.20018C0.0435326 6.27401 0.00984482 6.36166 0.00136028 6.45344C-0.00712426 6.54522 0.00992467 6.63755 0.0506238 6.72025C0.0913229 6.80295 0.154088 6.87279 0.231987 6.92205L0.641987 7.18205L0.642987 7.18405L5.63799 10.3621L8.81599 15.3571L8.81799 15.3591L9.07799 15.7691C9.12741 15.8466 9.19729 15.9091 9.27992 15.9495C9.36256 15.99 9.45475 16.0068 9.54635 15.9983C9.63795 15.9897 9.7254 15.956 9.79909 15.9009C9.87278 15.8458 9.92984 15.7715 9.96399 15.6861L15.964 0.68605ZM14.131 2.57605L6.63699 10.0701L6.42199 9.73205C6.38259 9.67003 6.33001 9.61744 6.26799 9.57805L5.92999 9.36305L13.424 1.86905L14.602 1.39805L14.132 2.57605H14.131Z" fill="#F2F2F2"/>
</g>
<defs>
<clipPath id="clip0_3_152">
<rect width="16" height="16" fill="white"/>
</clipPath>
</defs>
</svg>
