<svg width="41" height="40" viewBox="0 0 41 40" fill="none" xmlns="http://www.w3.org/2000/svg">
<path d="M13.6666 2.5625C11.7495 2.56208 9.86499 3.05801 8.19641 4.00202C6.52783 4.94602 5.13208 6.30594 4.14501 7.94941C3.15794 9.59288 2.61318 11.4639 2.56375 13.3804C2.51432 15.2968 2.96191 17.1935 3.86295 18.8856L2.6511 22.5212C2.55072 22.8222 2.53615 23.1452 2.60903 23.454C2.68191 23.7628 2.83936 24.0452 3.06372 24.2696C3.28808 24.494 3.5705 24.6514 3.87932 24.7243C4.18813 24.7972 4.51114 24.7826 4.81214 24.6822L8.44769 23.4704C9.9369 24.2624 11.587 24.7049 13.2727 24.764C14.9584 24.8232 16.6354 24.4975 18.1765 23.8117C19.7176 23.126 21.0822 22.0982 22.1667 20.8063C23.2512 19.5144 24.0272 17.9925 24.4357 16.3559C24.8442 14.7194 24.8745 13.0113 24.5243 11.3613C24.1741 9.71131 23.4526 8.16278 22.4146 6.83324C21.3766 5.50371 20.0494 4.42813 18.5336 3.68814C17.0178 2.94814 15.3534 2.56319 13.6666 2.5625ZM13.6666 23.0625C12.0149 23.0636 10.3921 22.6286 8.96233 21.8015C8.85764 21.7408 8.74126 21.7031 8.62087 21.6907C8.50049 21.6784 8.37886 21.6918 8.26405 21.73L4.27082 23.0625L5.60225 19.0693C5.64063 18.9545 5.65419 18.8329 5.64204 18.7126C5.6299 18.5922 5.59231 18.4758 5.53178 18.371C4.49607 16.5803 4.08024 14.498 4.34879 12.4469C4.61734 10.3958 5.55526 8.49065 7.01706 7.02701C8.47885 5.56337 10.3828 4.62304 12.4335 4.3519C14.4843 4.08076 16.5672 4.49396 18.3592 5.5274C20.1511 6.56085 21.5519 8.15677 22.3443 10.0676C23.1367 11.9784 23.2763 14.0973 22.7416 16.0956C22.2068 18.0939 21.0276 19.8598 19.3867 21.1195C17.7459 22.3792 15.7352 23.0622 13.6666 23.0625Z" fill="black"/>
<path d="M20.5371 28.5217C20.5368 30.1054 20.9464 31.6622 21.7263 33.0406C22.5061 34.419 23.6295 35.572 24.9872 36.3874C26.3448 37.2028 27.8904 37.6528 29.4736 37.6937C31.0568 37.7345 32.6236 37.3648 34.0214 36.6204L37.0247 37.6215C37.2734 37.7044 37.5402 37.7165 37.7953 37.6563C38.0504 37.5961 38.2837 37.466 38.4691 37.2806C38.6544 37.0953 38.7845 36.862 38.8447 36.6069C38.9049 36.3518 38.8928 36.085 38.8099 35.8363L37.8088 32.833C38.4632 31.6028 38.8286 30.2397 38.8775 28.8471C38.9263 27.4546 38.6573 26.0692 38.0908 24.7962C37.5243 23.5231 36.6753 22.3959 35.6081 21.4999C34.5409 20.604 33.2836 19.963 31.9317 19.6255C30.5798 19.2881 29.1687 19.263 27.8057 19.5523C26.4426 19.8416 25.1634 20.4376 24.0651 21.2951C22.9668 22.1526 22.0783 23.249 21.467 24.5012C20.8557 25.7533 20.5377 27.1283 20.5371 28.5217ZM37.4719 28.5217C37.4728 29.8862 37.1135 31.2268 36.4302 32.4079C36.3801 32.4944 36.3489 32.5905 36.3387 32.69C36.3285 32.7894 36.3396 32.8899 36.3711 32.9847L37.4719 36.2835L34.1731 35.1836C34.0783 35.1519 33.9779 35.1407 33.8785 35.1507C33.779 35.1608 33.6828 35.1918 33.5963 35.2418C32.1171 36.0974 30.3968 36.4409 28.7025 36.2191C27.0081 35.9972 25.4343 35.2224 24.2252 34.0148C23.0161 32.8073 22.2393 31.2345 22.0153 29.5404C21.7913 27.8463 22.1327 26.1256 22.9864 24.6453C23.8401 23.165 25.1585 22.0078 26.737 21.3532C28.3155 20.6986 30.0659 20.5833 31.7166 21.025C33.3674 21.4668 34.8262 22.441 35.8668 23.7964C36.9074 25.1519 37.4716 26.8129 37.4719 28.5217Z" fill="black"/>
</svg>
