<svg width="19" height="19" viewBox="0 0 19 19" fill="none" xmlns="http://www.w3.org/2000/svg">
<g clip-path="url(#clip0_103_127)">
<path d="M18.0771 9.47618C18.0771 4.58597 14.1372 0.621887 9.27781 0.621887C4.4162 0.622987 0.476318 4.58597 0.476318 9.47728C0.476318 13.8956 3.69466 17.5583 7.90072 18.2227V12.0357H5.6679V9.47728H7.90292V7.52493C7.90292 5.30641 9.21732 4.08111 11.2269 4.08111C12.1904 4.08111 13.1968 4.2538 13.1968 4.2538V6.43162H12.087C10.9948 6.43162 10.6538 7.11467 10.6538 7.81531V9.47618H13.0934L12.704 12.0346H10.6527V18.2216C14.8588 17.5572 18.0771 13.8945 18.0771 9.47618Z" fill="#D3DEFB"/>
</g>
<defs>
<clipPath id="clip0_103_127">
<rect width="17.5986" height="17.5986" fill="white" transform="translate(0.478882 0.623169)"/>
</clipPath>
</defs>
</svg>
