<svg width="66" height="70" viewBox="0 0 66 70" fill="none" xmlns="http://www.w3.org/2000/svg">
<path d="M54.0561 5.0098V23.5001H52.0507V5.45403V3.95403H50.5507H38.8714H37.3714V5.45403V18.3366C37.3714 20.2988 35.9005 21.7231 34.2831 21.7231H22.1866H20.6866V23.2231V36.1058C20.6866 38.0679 19.2158 39.4923 17.5983 39.4923H5.50188H4.00188V40.9923V53.4306V54.9306H5.50188H22.3551V57.2614H5.08477C3.46537 57.2614 1.99646 55.8349 1.99646 53.8749V40.548C1.99646 38.5859 3.46734 37.1615 5.08477 37.1615H17.1812H18.6812V35.6615V22.7789C18.6812 20.8168 20.1521 19.3924 21.7695 19.3924H33.866H35.366V17.8924V5.0098C35.366 3.04767 36.8368 1.62329 38.4543 1.62329H50.9678C52.5872 1.62329 54.0561 3.04977 54.0561 5.0098ZM43.8768 47.823H45.3768V46.323V33.4404C45.3768 31.4783 46.8477 30.0539 48.4651 30.0539H60.9787C62.5981 30.0539 64.067 31.4804 64.067 33.4404V57.8729C64.067 60.5677 63.0609 63.1347 61.297 65.0132C59.5361 66.8885 57.1688 67.9229 54.7219 67.9229H31.7804C30.161 67.9229 28.6921 66.4964 28.6921 64.5363V51.2095C28.6921 49.2474 30.1629 47.823 31.7804 47.823H43.8768Z" fill="#D3DEFB" stroke="#F2F2F2" stroke-width="3"/>
</svg>
