<svg width="83" height="86" viewBox="0 0 83 86" fill="none" xmlns="http://www.w3.org/2000/svg">
<path d="M62.4792 12.0098V30.5001H60.2917V12.454V10.954H58.7917H46.6875H45.1875V12.454V25.3366C45.1875 27.2472 43.6912 28.7231 41.9323 28.7231H29.3959H27.8959V30.2231V43.1058C27.8959 45.0163 26.3995 46.4923 24.6406 46.4923H12.1042H10.6042V47.9923V60.4306V61.9306H12.1042H29.625V64.2614H11.6719C9.91094 64.2614 8.41669 62.7833 8.41669 60.8749V47.548C8.41669 45.6375 9.913 44.1615 11.6719 44.1615H24.2084H25.7084V42.6615V29.7789C25.7084 27.8684 27.2047 26.3924 28.9636 26.3924H41.5H43V24.8924V12.0098C43 10.0993 44.4963 8.62329 46.2552 8.62329H59.224C60.9849 8.62329 62.4792 10.1014 62.4792 12.0098ZM51.875 54.823H53.375V53.323V40.4404C53.375 38.5299 54.8713 37.0539 56.6302 37.0539H69.599C71.3599 37.0539 72.8542 38.532 72.8542 40.4404V64.8729C72.8542 67.5513 71.8184 70.112 69.9872 71.9938C68.1573 73.8742 65.6843 74.9229 63.1146 74.9229H39.3386C37.5776 74.9229 36.0834 73.4448 36.0834 71.5363V58.2095C36.0834 56.299 37.5797 54.823 39.3386 54.823H51.875Z" fill="#D3DEFB" stroke="#F2F2F2" stroke-width="3"/>
</svg>
