<svg width="19" height="19" viewBox="0 0 19 19" fill="none" xmlns="http://www.w3.org/2000/svg">
<path d="M9.47185 1.65842C8.45225 1.65842 7.44264 1.85924 6.50066 2.24942C5.55868 2.6396 4.70277 3.2115 3.98181 3.93246C2.52576 5.38851 1.70776 7.36334 1.70776 9.4225C1.70776 12.8542 3.93606 15.7658 7.0184 16.7984C7.4066 16.8605 7.53083 16.6198 7.53083 16.4102V15.098C5.38018 15.5639 4.92209 14.0577 4.92209 14.0577C4.56495 13.157 4.06028 12.9163 4.06028 12.9163C3.35375 12.435 4.11463 12.4505 4.11463 12.4505C4.89104 12.5048 5.30253 13.2502 5.30253 13.2502C5.97801 14.4303 7.11933 14.081 7.56188 13.8946C7.63176 13.3899 7.83363 13.0483 8.05102 12.8542C6.32739 12.6601 4.51836 11.9924 4.51836 9.0343C4.51836 8.17248 4.8134 7.48148 5.31806 6.93023C5.24042 6.73613 4.96868 5.92866 5.3957 4.88051C5.3957 4.88051 6.04789 4.67088 7.53083 5.67245C8.14419 5.50164 8.8119 5.41623 9.47185 5.41623C10.1318 5.41623 10.7995 5.50164 11.4129 5.67245C12.8958 4.67088 13.548 4.88051 13.548 4.88051C13.975 5.92866 13.7033 6.73613 13.6256 6.93023C14.1303 7.48148 14.4253 8.17248 14.4253 9.0343C14.4253 12.0002 12.6085 12.6524 10.8771 12.8465C11.1567 13.0871 11.4129 13.5608 11.4129 14.2828V16.4102C11.4129 16.6198 11.5371 16.8683 11.9331 16.7984C15.0154 15.758 17.2359 12.8542 17.2359 9.4225C17.2359 8.40291 17.0351 7.3933 16.6449 6.45131C16.2547 5.50933 15.6828 4.65343 14.9619 3.93246C14.2409 3.2115 13.385 2.6396 12.443 2.24942C11.5011 1.85924 10.4914 1.65842 9.47185 1.65842Z" fill="#D3DEFB"/>
</svg>
