<svg width="84" height="86" viewBox="0 0 84 86" fill="none" xmlns="http://www.w3.org/2000/svg">
<path opacity="0.2" d="M80.579 43.5476C80.5847 48.9762 79.4458 54.345 77.2364 59.3036C75.027 64.2623 71.7968 68.6993 67.7566 72.3252C65.3276 67.5474 61.6234 63.5354 57.0544 60.7335C52.4854 57.9315 47.2298 56.4492 41.8701 56.4505C45.0601 56.4505 48.1784 55.5046 50.8307 53.7323C53.4831 51.9601 55.5503 49.4411 56.7711 46.494C57.9918 43.5469 58.3112 40.3039 57.6889 37.1753C57.0666 34.0466 55.5304 31.1728 53.2748 28.9171C51.0192 26.6615 48.1453 25.1254 45.0167 24.5031C41.888 23.8807 38.6451 24.2001 35.6979 25.4209C32.7508 26.6416 30.2318 28.7089 28.4596 31.3612C26.6873 34.0136 25.7414 37.1319 25.7414 40.3218C25.7414 44.5994 27.4407 48.7018 30.4654 51.7265C33.4901 54.7513 37.5925 56.4505 41.8701 56.4505C36.5104 56.4492 31.2549 57.9315 26.6858 60.7335C22.1168 63.5354 18.4126 67.5474 15.9836 72.3252C8.59453 65.6788 4.04498 56.445 3.27721 46.5362C2.50944 36.6275 5.58228 26.8031 11.8593 19.0978C18.1363 11.3925 27.1365 6.39672 36.9958 5.14519C46.8551 3.89366 56.8181 6.48226 64.8212 12.3748C64.4196 13.5213 64.3498 14.7579 64.62 15.9422C64.8901 17.1266 65.4891 18.2107 66.348 19.0696C67.207 19.9286 68.2911 20.5276 69.4754 20.7977C70.6598 21.0678 71.8964 20.9981 73.0428 20.5964C77.9488 27.2419 80.5906 35.2874 80.579 43.5476Z" fill="#265CED"/>
<path d="M82.2926 17.3666L80.4136 16.2819C80.6341 15.1148 80.6341 13.9168 80.4136 12.7497L82.2926 11.6651C83.0337 11.2373 83.5746 10.5327 83.7961 9.70617C84.0177 8.87967 83.9018 7.999 83.4741 7.25791C83.0463 6.51682 82.3417 5.976 81.5152 5.75444C80.6887 5.53288 79.808 5.64872 79.0669 6.07648L77.1839 7.16517C76.2827 6.39203 75.2466 5.79193 74.1275 5.39505V3.22574C74.1275 2.37022 73.7876 1.54974 73.1827 0.944797C72.5778 0.339853 71.7573 0 70.9018 0C70.0462 0 69.2258 0.339853 68.6208 0.944797C68.0159 1.54974 67.676 2.37022 67.676 3.22574V5.39505C66.557 5.79193 65.5208 6.39203 64.6196 7.16517L62.7366 6.07648C62.3697 5.86468 61.9646 5.72722 61.5445 5.67197C61.1244 5.61671 60.6976 5.64474 60.2883 5.75444C59.8791 5.86415 59.4955 6.05339 59.1594 6.31135C58.8233 6.56932 58.5412 6.89096 58.3294 7.25791C58.1176 7.62486 57.9802 8.02994 57.9249 8.45001C57.8697 8.87009 57.8977 9.29693 58.0074 9.70617C58.1171 10.1154 58.3063 10.499 58.5643 10.8352C58.8223 11.1713 59.1439 11.4533 59.5109 11.6651L61.3899 12.7497C61.1694 13.9168 61.1694 15.1148 61.3899 16.2819L59.5109 17.3666C58.8955 17.7215 58.4146 18.2695 58.1426 18.9257C57.8706 19.5819 57.8228 20.3095 58.0066 20.9956C58.1905 21.6818 58.5956 22.288 59.1592 22.7204C59.7229 23.1527 60.4134 23.3869 61.1237 23.3866C61.6901 23.3884 62.2468 23.2394 62.7366 22.9552L64.6196 21.8665C65.5208 22.6396 66.557 23.2397 67.676 23.6366V25.8059C67.676 26.6614 68.0159 27.4819 68.6208 28.0868C69.2258 28.6918 70.0462 29.0316 70.9018 29.0316C71.7573 29.0316 72.5778 28.6918 73.1827 28.0868C73.7876 27.4819 74.1275 26.6614 74.1275 25.8059V23.6366C75.2466 23.2397 76.2827 22.6396 77.1839 21.8665L79.0669 22.9552C79.5568 23.2394 80.1134 23.3884 80.6798 23.3866C81.3901 23.3869 82.0807 23.1527 82.6443 22.7204C83.2079 22.288 83.613 21.6818 83.7969 20.9956C83.9807 20.3095 83.9329 19.5819 83.6609 18.9257C83.3889 18.2695 82.908 17.7215 82.2926 17.3666ZM67.676 14.5158C67.676 13.8778 67.8652 13.2542 68.2197 12.7237C68.5741 12.1932 69.0779 11.7798 69.6673 11.5356C70.2567 11.2915 70.9053 11.2276 71.5311 11.3521C72.1568 11.4765 72.7316 11.7838 73.1827 12.2349C73.6338 12.686 73.941 13.2608 74.0655 13.8865C74.19 14.5122 74.1261 15.1608 73.882 15.7503C73.6378 16.3397 73.2243 16.8435 72.6939 17.1979C72.1634 17.5524 71.5397 17.7416 70.9018 17.7416C70.0462 17.7416 69.2258 17.4017 68.6208 16.7968C68.0159 16.1918 67.676 15.3713 67.676 14.5158ZM79.5104 33.9146C78.6667 34.0558 77.9136 34.5264 77.4168 35.2228C76.92 35.9192 76.7202 36.7845 76.8613 37.6282C77.1888 39.5843 77.3534 41.5642 77.3532 43.5475C77.3609 52.2335 74.1684 60.618 68.3857 67.0994C64.788 61.8861 59.7293 57.8529 53.8457 55.5069C57.0061 53.0176 59.3124 49.6053 60.4436 45.7446C61.5749 41.8838 61.4749 37.7665 60.1577 33.9652C58.8404 30.1639 56.3714 26.8675 53.0938 24.5345C49.8163 22.2015 45.8932 20.9478 41.8701 20.9478C37.847 20.9478 33.924 22.2015 30.6464 24.5345C27.3689 26.8675 24.8998 30.1639 23.5826 33.9652C22.2653 37.7665 22.1654 41.8838 23.2966 45.7446C24.4279 49.6053 26.7341 53.0176 29.8946 55.5069C24.0109 57.8529 18.9522 61.8861 15.3546 67.0994C10.8172 61.9864 7.85339 55.6717 6.81943 48.9144C5.78546 42.1572 6.72539 35.2451 9.5262 29.0093C12.327 22.7735 16.8694 17.4795 22.6073 13.7638C28.3452 10.0482 35.0342 8.069 41.8701 8.06434C43.8534 8.06403 45.8333 8.22857 47.7893 8.55627C48.6293 8.6888 49.4876 8.48431 50.1776 7.98729C50.8675 7.49026 51.3333 6.7409 51.4736 5.90222C51.6139 5.06354 51.4174 4.20338 50.9268 3.50884C50.4362 2.8143 49.6912 2.34158 48.8538 2.1935C40.0937 0.719803 31.0919 2.06824 23.1481 6.04412C15.2043 10.02 8.72955 16.4176 4.65875 24.3132C0.587954 32.2088 -0.868268 41.1938 0.50034 49.9709C1.86895 58.7481 5.99157 66.8632 12.273 73.1446C18.5543 79.426 26.6695 83.5486 35.4466 84.9172C44.2238 86.2858 53.2088 84.8296 61.1044 80.7588C69 76.688 75.3976 70.2133 79.3735 62.2695C83.3493 54.3257 84.6978 45.3239 83.2241 36.5637C83.0829 35.72 82.6123 34.9669 81.9159 34.4701C81.2194 33.9733 80.3542 33.7735 79.5104 33.9146ZM28.9672 40.3217C28.9672 37.7698 29.7239 35.2751 31.1417 33.1532C32.5595 31.0313 34.5747 29.3775 36.9324 28.4009C39.2901 27.4244 41.8844 27.1688 44.3874 27.6667C46.8903 28.1646 49.1894 29.3934 50.9939 31.198C52.7984 33.0025 54.0273 35.3016 54.5251 37.8045C55.023 40.3074 54.7675 42.9018 53.7909 45.2595C52.8143 47.6172 51.1605 49.6323 49.0386 51.0501C46.9167 52.4679 44.4221 53.2247 41.8701 53.2247C38.448 53.2247 35.1661 51.8653 32.7464 49.4455C30.3266 47.0257 28.9672 43.7438 28.9672 40.3217ZM20.1286 71.5711C22.4622 67.9215 25.6769 64.918 29.4765 62.8376C33.2761 60.7572 37.5383 59.6667 41.8701 59.6667C46.202 59.6667 50.4641 60.7572 54.2637 62.8376C58.0633 64.918 61.278 67.9215 63.6116 71.5711C57.3953 76.4056 49.745 79.0303 41.8701 79.0303C33.9952 79.0303 26.3449 76.4056 20.1286 71.5711Z" fill="white"/>
</svg>
