<svg width="19" height="19" viewBox="0 0 19 19" fill="none" xmlns="http://www.w3.org/2000/svg">
<path d="M6.35534 1.65842H12.8772C15.3617 1.65842 17.3803 3.67708 17.3803 6.16159V12.6834C17.3803 13.8777 16.9059 15.0231 16.0614 15.8676C15.2169 16.7121 14.0715 17.1866 12.8772 17.1866H6.35534C3.87083 17.1866 1.85217 15.1679 1.85217 12.6834V6.16159C1.85217 4.96727 2.32661 3.82187 3.17112 2.97736C4.01563 2.13286 5.16103 1.65842 6.35534 1.65842ZM6.20006 3.21123C5.45876 3.21123 4.74782 3.50571 4.22365 4.02989C3.69947 4.55407 3.40499 5.26501 3.40499 6.0063V12.8387C3.40499 14.3838 4.65501 15.6338 6.20006 15.6338H13.0325C13.7738 15.6338 14.4847 15.3393 15.0089 14.8151C15.533 14.2909 15.8275 13.58 15.8275 12.8387V6.0063C15.8275 4.46125 14.5775 3.21123 13.0325 3.21123H6.20006ZM13.6924 4.37585C13.9498 4.37585 14.1967 4.4781 14.3787 4.6601C14.5607 4.84211 14.6629 5.08896 14.6629 5.34636C14.6629 5.60375 14.5607 5.85061 14.3787 6.03261C14.1967 6.21462 13.9498 6.31687 13.6924 6.31687C13.435 6.31687 13.1882 6.21462 13.0061 6.03261C12.8241 5.85061 12.7219 5.60375 12.7219 5.34636C12.7219 5.08896 12.8241 4.84211 13.0061 4.6601C13.1882 4.4781 13.435 4.37585 13.6924 4.37585ZM9.61626 5.54046C10.6458 5.54046 11.6333 5.94946 12.3613 6.67748C13.0893 7.40551 13.4983 8.39292 13.4983 9.4225C13.4983 10.4521 13.0893 11.4395 12.3613 12.1675C11.6333 12.8955 10.6458 13.3045 9.61626 13.3045C8.58668 13.3045 7.59926 12.8955 6.87124 12.1675C6.14321 11.4395 5.73422 10.4521 5.73422 9.4225C5.73422 8.39292 6.14321 7.40551 6.87124 6.67748C7.59926 5.94946 8.58668 5.54046 9.61626 5.54046ZM9.61626 7.09328C8.99851 7.09328 8.40606 7.33868 7.96925 7.77549C7.53243 8.2123 7.28703 8.80475 7.28703 9.4225C7.28703 10.0402 7.53243 10.6327 7.96925 11.0695C8.40606 11.5063 8.99851 11.7517 9.61626 11.7517C10.234 11.7517 10.8265 11.5063 11.2633 11.0695C11.7001 10.6327 11.9455 10.0402 11.9455 9.4225C11.9455 8.80475 11.7001 8.2123 11.2633 7.77549C10.8265 7.33868 10.234 7.09328 9.61626 7.09328Z" fill="#D3DEFB"/>
</svg>
