<svg width="35" height="33" viewBox="0 0 35 33" fill="none" xmlns="http://www.w3.org/2000/svg">
<path opacity="0.2" d="M32.86 16.608C32.8623 18.6784 32.3978 20.7259 31.4969 22.617C30.5959 24.5081 29.2786 26.2003 27.631 27.5831C26.6405 25.761 25.1299 24.2309 23.2667 23.1623C21.4034 22.0937 19.2602 21.5284 17.0745 21.5289C18.3754 21.5289 19.647 21.1681 20.7287 20.4923C21.8103 19.8164 22.6533 18.8557 23.1511 17.7317C23.6489 16.6078 23.7792 15.371 23.5254 14.1778C23.2716 12.9846 22.6452 11.8886 21.7254 11.0283C20.8055 10.1681 19.6336 9.58225 18.3577 9.34491C17.0818 9.10757 15.7594 9.22938 14.5575 9.69494C13.3557 10.1605 12.3285 10.9489 11.6057 11.9604C10.883 12.972 10.4973 14.1612 10.4973 15.3778C10.4973 17.0092 11.1902 18.5737 12.4237 19.7273C13.6572 20.8808 15.3301 21.5289 17.0745 21.5289C14.8888 21.5284 12.7456 22.0937 10.8824 23.1623C9.01914 24.2309 7.50857 25.761 6.51803 27.5831C3.50479 25.0483 1.64948 21.5268 1.33639 17.7478C1.02329 13.9689 2.2764 10.2221 4.83615 7.28348C7.39591 4.34487 11.0662 2.4396 15.0868 1.96229C19.1074 1.48499 23.1703 2.47222 26.434 4.71951C26.2702 5.15675 26.2417 5.62834 26.3519 6.08003C26.462 6.53172 26.7063 6.94514 27.0566 7.27274C27.4069 7.60033 27.849 7.82878 28.332 7.93179C28.8149 8.0348 29.3192 8.00819 29.7867 7.85503C31.7874 10.3894 32.8647 13.4578 32.86 16.608Z" fill="#265CED"/>
<path d="M33.5588 6.62318L32.7926 6.20952C32.8825 5.76443 32.8825 5.30753 32.7926 4.86244L33.5588 4.44878C33.8611 4.28564 34.0816 4.01691 34.172 3.7017C34.2623 3.38649 34.2151 3.05063 34.0406 2.76799C33.8662 2.48536 33.5788 2.2791 33.2418 2.1946C32.9047 2.11011 32.5456 2.15429 32.2434 2.31742L31.4755 2.73262C31.108 2.43776 30.6855 2.2089 30.2291 2.05754V1.23022C30.2291 0.903944 30.0905 0.591033 29.8438 0.360322C29.5971 0.129612 29.2625 0 28.9137 0C28.5648 0 28.2302 0.129612 27.9835 0.360322C27.7368 0.591033 27.5982 0.903944 27.5982 1.23022V2.05754C27.1419 2.2089 26.7193 2.43776 26.3518 2.73262L25.5839 2.31742C25.4343 2.23665 25.2691 2.18422 25.0978 2.16315C24.9265 2.14208 24.7524 2.15277 24.5855 2.1946C24.4186 2.23644 24.2622 2.30861 24.1251 2.407C23.9881 2.50538 23.8731 2.62804 23.7867 2.76799C23.7003 2.90794 23.6443 3.06242 23.6217 3.22263C23.5992 3.38283 23.6106 3.54562 23.6554 3.7017C23.7001 3.85777 23.7773 4.00408 23.8825 4.13226C23.9877 4.26045 24.1188 4.368 24.2685 4.44878L25.0347 4.86244C24.9448 5.30753 24.9448 5.76443 25.0347 6.20952L24.2685 6.62318C24.0175 6.75853 23.8214 6.96755 23.7105 7.2178C23.5996 7.46806 23.5801 7.74556 23.655 8.00723C23.73 8.2689 23.8952 8.50012 24.1251 8.66499C24.3549 8.82987 24.6365 8.91918 24.9262 8.91908C25.1572 8.91975 25.3842 8.86296 25.5839 8.75454L26.3518 8.33934C26.7193 8.6342 27.1419 8.86306 27.5982 9.01442V9.84174C27.5982 10.168 27.7368 10.4809 27.9835 10.7116C28.2302 10.9423 28.5648 11.072 28.9137 11.072C29.2625 11.072 29.5971 10.9423 29.8438 10.7116C30.0905 10.4809 30.2291 10.168 30.2291 9.84174V9.01442C30.6855 8.86306 31.108 8.6342 31.4755 8.33934L32.2434 8.75454C32.4432 8.86296 32.6702 8.91975 32.9011 8.91908C33.1908 8.91918 33.4724 8.82987 33.7022 8.66499C33.9321 8.50012 34.0973 8.2689 34.1723 8.00723C34.2472 7.74556 34.2278 7.46806 34.1168 7.2178C34.0059 6.96755 33.8098 6.75853 33.5588 6.62318ZM27.5982 5.53598C27.5982 5.29267 27.6754 5.05482 27.8199 4.85251C27.9644 4.6502 28.1699 4.49252 28.4103 4.39941C28.6506 4.30629 28.9151 4.28193 29.1703 4.3294C29.4255 4.37687 29.6599 4.49404 29.8438 4.66609C30.0278 4.83813 30.1531 5.05734 30.2038 5.29598C30.2546 5.53462 30.2285 5.78197 30.129 6.00676C30.0294 6.23156 29.8608 6.42369 29.6445 6.55887C29.4282 6.69405 29.1738 6.7662 28.9137 6.7662C28.5648 6.7662 28.2302 6.63659 27.9835 6.40588C27.7368 6.17516 27.5982 5.86225 27.5982 5.53598ZM32.4243 12.9342C32.0802 12.9881 31.7731 13.1675 31.5705 13.4331C31.3679 13.6987 31.2864 14.0287 31.344 14.3505C31.4775 15.0965 31.5446 15.8516 31.5446 16.6079C31.5477 19.9206 30.2458 23.1182 27.8876 25.5901C26.4205 23.6018 24.3576 22.0637 21.9582 21.169C23.247 20.2196 24.1875 18.9183 24.6488 17.4459C25.1102 15.9735 25.0694 14.4032 24.5322 12.9535C23.9951 11.5038 22.9882 10.2466 21.6516 9.35687C20.315 8.46712 18.7152 7.989 17.0746 7.989C15.434 7.989 13.8342 8.46712 12.4976 9.35687C11.161 10.2466 10.1541 11.5038 9.61694 12.9535C9.07977 14.4032 9.03901 15.9735 9.50033 17.4459C9.96166 18.9183 10.9021 20.2196 12.191 21.169C9.79162 22.0637 7.72868 23.6018 6.26157 25.5901C4.41125 23.6401 3.2026 21.2318 2.78095 18.6548C2.35931 16.0777 2.74261 13.4416 3.88477 11.0635C5.02694 8.68527 6.87934 6.66627 9.21924 5.24919C11.5591 3.83212 14.2869 3.07732 17.0746 3.07554C17.8834 3.07542 18.6908 3.13818 19.4884 3.26315C19.831 3.3137 20.181 3.23571 20.4624 3.04616C20.7437 2.8566 20.9337 2.57082 20.9909 2.25096C21.0481 1.93111 20.968 1.60306 20.7679 1.33819C20.5678 1.07331 20.264 0.893023 19.9225 0.836548C16.3502 0.274515 12.6792 0.788777 9.43976 2.30508C6.20028 3.82139 3.5599 6.26127 1.89983 9.27245C0.239767 12.2836 -0.354079 15.7103 0.204038 19.0577C0.762155 22.4051 2.44335 25.5 5.0049 27.8956C7.56644 30.2911 10.8758 31.8634 14.4551 32.3854C18.0344 32.9073 21.6985 32.352 24.9183 30.7995C28.1381 29.2469 30.747 26.7776 32.3684 23.7481C33.9898 20.7185 34.5397 17.2854 33.9387 13.9445C33.8811 13.6227 33.6892 13.3355 33.4052 13.1461C33.1212 12.9566 32.7684 12.8804 32.4243 12.9342ZM11.8128 15.3777C11.8128 14.4045 12.1214 13.4531 12.6996 12.6438C13.2777 11.8346 14.0995 11.2039 15.061 10.8314C16.0225 10.459 17.0804 10.3615 18.1011 10.5514C19.1218 10.7413 20.0594 11.2099 20.7952 11.8981C21.5311 12.5863 22.0323 13.4632 22.2353 14.4177C22.4383 15.3723 22.3341 16.3617 21.9359 17.2609C21.5376 18.16 20.8632 18.9286 19.9979 19.4693C19.1326 20.01 18.1153 20.2986 17.0746 20.2986C15.6791 20.2986 14.3407 19.7801 13.3539 18.8573C12.3671 17.9345 11.8128 16.6828 11.8128 15.3777ZM8.20844 27.2955C9.16006 25.9036 10.471 24.7582 12.0205 23.9647C13.57 23.1713 15.3081 22.7554 17.0746 22.7554C18.8411 22.7554 20.5792 23.1713 22.1287 23.9647C23.6782 24.7582 24.9891 25.9036 25.9407 27.2955C23.4058 29.1392 20.286 30.1402 17.0746 30.1402C13.8632 30.1402 10.7434 29.1392 8.20844 27.2955Z" fill="white"/>
</svg>
