<svg width="18" height="18" viewBox="0 0 18 18" fill="none" xmlns="http://www.w3.org/2000/svg">
<path d="M16.0651 0.882019C16.5685 0.882019 17.0512 1.08197 17.4071 1.4379C17.7631 1.79382 17.963 2.27656 17.963 2.77991V16.0651C17.963 16.5685 17.7631 17.0512 17.4071 17.4071C17.0512 17.7631 16.5685 17.963 16.0651 17.963H2.77991C2.27656 17.963 1.79382 17.7631 1.4379 17.4071C1.08197 17.0512 0.882019 16.5685 0.882019 16.0651V2.77991C0.882019 2.27656 1.08197 1.79382 1.4379 1.4379C1.79382 1.08197 2.27656 0.882019 2.77991 0.882019H16.0651ZM15.5906 15.5906V10.5612C15.5906 9.74078 15.2647 8.95392 14.6846 8.37377C14.1044 7.79362 13.3176 7.46769 12.4971 7.46769C11.6905 7.46769 10.751 7.96114 10.2955 8.70131V7.64799H7.64799V15.5906H10.2955V10.9124C10.2955 10.1817 10.8839 9.58383 11.6146 9.58383C11.9669 9.58383 12.3048 9.7238 12.554 9.97295C12.8031 10.2221 12.9431 10.56 12.9431 10.9124V15.5906H15.5906ZM4.56392 6.15815C4.98674 6.15815 5.39223 5.99018 5.69121 5.69121C5.99018 5.39223 6.15815 4.98674 6.15815 4.56392C6.15815 3.6814 5.44644 2.96021 4.56392 2.96021C4.13859 2.96021 3.73068 3.12917 3.42992 3.42992C3.12917 3.73068 2.96021 4.13859 2.96021 4.56392C2.96021 5.44644 3.6814 6.15815 4.56392 6.15815ZM5.88295 15.5906V7.64799H3.25438V15.5906H5.88295Z" fill="#D3DEFB"/>
</svg>
