<svg width="43" height="43" viewBox="0 0 43 43" fill="none" xmlns="http://www.w3.org/2000/svg">
<path d="M41.2083 30.4584C41.2083 36.3888 36.3888 41.2084 30.4583 41.2084V38.5209C34.9375 38.5209 38.5208 34.9375 38.5208 30.4584H41.2083ZM1.79167 12.5417C1.79167 6.61127 6.61126 1.79169 12.5417 1.79169V4.47919C8.06251 4.47919 4.47917 8.06252 4.47917 12.5417H1.79167ZM14.3333 7.74002L6.10959 15.9817C0.340423 21.7509 0.340423 31.1213 6.10959 36.8904C11.8788 42.6596 21.2492 42.6596 27.0183 36.8904L39.6854 24.1875C40.5633 23.3454 40.5633 21.93 39.6854 21.0521C39.4774 20.8435 39.2302 20.6781 38.9582 20.5652C38.6861 20.4523 38.3944 20.3941 38.0998 20.3941C37.8052 20.3941 37.5135 20.4523 37.2414 20.5652C36.9694 20.6781 36.7222 20.8435 36.5142 21.0521L28.595 28.9713L27.3229 27.6992L39.0404 15.9817C39.9183 15.1038 39.9183 13.6884 39.0404 12.8104C38.1625 11.9325 36.7292 11.9325 35.8333 12.8104L25.4238 23.2917L24.1875 21.9838L36.4963 9.63919C37.3742 8.76127 37.3742 7.34585 36.4963 6.46794C35.6183 5.59002 34.2029 5.59002 33.325 6.46794L20.9804 18.8125L19.7083 17.5584L29.5625 7.74002C30.4583 6.8621 30.4583 5.44669 29.5625 4.56877C28.6667 3.69085 27.2692 3.69085 26.3913 4.56877L12.7388 18.2213C13.8077 19.6002 14.3374 21.3215 14.2286 23.0629C14.1197 24.8042 13.3799 26.4462 12.1475 27.6813L10.8754 26.4092C11.882 25.4014 12.4474 24.0352 12.4474 22.6109C12.4474 21.1865 11.882 19.8203 10.8754 18.8125L10.2483 18.1854L17.5404 10.8934C18.4183 10.0154 18.4183 8.60002 17.5404 7.7221C16.6446 6.8621 15.2292 6.8621 14.3333 7.74002Z" fill="#222222"/>
</svg>
