<svg width="40" height="40" viewBox="0 0 40 40" fill="none" xmlns="http://www.w3.org/2000/svg">
<path d="M11.6667 6.66669V33.3334M11.6667 6.66669L4.08335 14.3M11.6667 6.66669H27.0834C27.6915 6.73025 28.2594 7.0009 28.6918 7.43329C29.1241 7.86567 29.3948 8.43352 29.4584 9.04169V30.925C29.402 31.5392 29.1346 32.1148 28.7015 32.5539C28.2685 32.993 27.6967 33.2685 27.0834 33.3334H6.45835C6.14236 33.338 5.82869 33.2786 5.53626 33.1588C5.24382 33.039 4.97866 32.8612 4.75676 32.6362C4.53485 32.4111 4.36079 32.1435 4.24506 31.8495C4.12933 31.5554 4.07432 31.2409 4.08335 30.925V14.3M4.08335 14.3H22.325V25.7H4.08335M34.2084 10.5C35.5667 9.41669 36.5834 10.3084 36.5834 11.45V28.55C36.5834 29.9917 35.5667 30.5834 34.2084 29.5L22.325 20L34.2084 10.5Z" stroke="black" stroke-linecap="round" stroke-linejoin="round"/>
</svg>
