<svg width="45" height="45" viewBox="0 0 45 45" fill="none" xmlns="http://www.w3.org/2000/svg">
<path d="M20.625 33.75V34.6875C20.625 34.9375 20.7188 35.1563 20.9063 35.3438C21.0938 35.5313 21.3125 35.625 21.5625 35.625H23.4375C23.6875 35.625 23.9063 35.5313 24.0938 35.3438C24.2813 35.1563 24.375 34.9375 24.375 34.6875V33.75H26.25C26.7813 33.75 27.2269 33.57 27.5869 33.21C27.9469 32.85 28.1263 32.405 28.125 31.875V26.25C28.125 25.7188 27.945 25.2731 27.585 24.9131C27.225 24.5531 26.78 24.3738 26.25 24.375H20.625V22.5H26.25C26.7813 22.5 27.2269 22.32 27.5869 21.96C27.9469 21.6 28.1263 21.155 28.125 20.625C28.125 20.0938 27.945 19.6481 27.585 19.2881C27.225 18.9281 26.78 18.7488 26.25 18.75H24.375V17.8125C24.375 17.5625 24.2813 17.3438 24.0938 17.1563C23.9063 16.9688 23.6875 16.875 23.4375 16.875H21.5625C21.3125 16.875 21.0938 16.9688 20.9063 17.1563C20.7188 17.3438 20.625 17.5625 20.625 17.8125V18.75H18.75C18.2188 18.75 17.7731 18.93 17.4131 19.29C17.0531 19.65 16.8738 20.095 16.875 20.625V26.25C16.875 26.7813 17.055 27.2269 17.415 27.5869C17.775 27.9469 18.22 28.1263 18.75 28.125H24.375V30H18.75C18.2188 30 17.7731 30.18 17.4131 30.54C17.0531 30.9 16.8738 31.345 16.875 31.875C16.875 32.4063 17.055 32.8519 17.415 33.2119C17.775 33.5719 18.22 33.7513 18.75 33.75H20.625ZM11.25 41.25C10.2188 41.25 9.33563 40.8825 8.60063 40.1475C7.86563 39.4125 7.49875 38.53 7.5 37.5V7.5C7.5 6.46875 7.8675 5.58563 8.6025 4.85063C9.3375 4.11563 10.22 3.74875 11.25 3.75H28.125L37.5 13.125V37.5C37.5 38.5313 37.1325 39.4144 36.3975 40.1494C35.6625 40.8844 34.78 41.2513 33.75 41.25H11.25ZM11.25 37.5H33.75V15H28.125C27.5938 15 27.1481 14.82 26.7881 14.46C26.4281 14.1 26.2488 13.655 26.25 13.125V7.5H11.25V37.5Z" fill="black"/>
</svg>
