<svg width="74" height="74" viewBox="0 0 74 74" fill="none" xmlns="http://www.w3.org/2000/svg">
<mask id="path-1-inside-1_3_25" fill="white">
<path d="M56.6008 4.20568C56.9164 3.67989 57.428 3.30103 58.023 3.15242C58.618 3.00382 59.2477 3.09764 59.7735 3.41326L59.7827 3.41943L59.792 3.4256L59.8228 3.4441C59.9431 3.5175 60.0603 3.59567 60.1743 3.67843C60.3902 3.82951 60.6831 4.04843 61.0284 4.3321C61.7129 4.90251 62.6071 5.7566 63.5012 6.91593C65.2957 9.2531 67.0625 12.8174 67.0625 17.7292C67.0625 22.6409 65.2957 26.2083 63.5012 28.5424C62.6071 29.7018 61.7129 30.5558 61.0284 31.1263C60.6565 31.4358 60.2674 31.724 59.8629 31.9896L59.8228 32.0143L59.792 32.0328L59.7827 32.0389L59.7766 32.042C59.7766 32.042 59.7735 32.0451 58.5833 30.0625L59.7735 32.0451C59.2498 32.3423 58.6308 32.4235 58.0481 32.2714C57.4654 32.1194 56.965 31.746 56.6534 31.2307C56.3417 30.7154 56.2434 30.0989 56.3792 29.5122C56.5151 28.9256 56.8744 28.415 57.3808 28.0892L57.3962 28.0768L57.5196 27.9936C57.6429 27.9073 57.831 27.7685 58.0653 27.5743C58.5371 27.1796 59.1846 26.5691 59.8321 25.7243C61.1209 24.0531 62.4375 21.4508 62.4375 17.7292C62.4375 14.0076 61.1209 11.4083 59.8321 9.7341C59.3124 9.05488 58.7199 8.43452 58.0653 7.8841C57.851 7.70534 57.6277 7.53759 57.3962 7.38151L57.3808 7.37226C56.8588 7.05461 56.4837 6.54324 56.3376 5.9499C56.1914 5.35655 56.286 4.72947 56.6008 4.20568ZM30.8333 30.0625C34.1043 30.0625 37.2414 28.7631 39.5543 26.4502C41.8673 24.1372 43.1667 21.0002 43.1667 17.7292C43.1667 14.4582 41.8673 11.3211 39.5543 9.0082C37.2414 6.69525 34.1043 5.39585 30.8333 5.39585C27.5623 5.39585 24.4253 6.69525 22.1123 9.0082C19.7994 11.3211 18.5 14.4582 18.5 17.7292C18.5 21.0002 19.7994 24.1372 22.1123 26.4502C24.4253 28.7631 27.5623 30.0625 30.8333 30.0625Z"/>
</mask>
<path d="M56.6008 4.20568C56.9164 3.67989 57.428 3.30103 58.023 3.15242C58.618 3.00382 59.2477 3.09764 59.7735 3.41326L59.7827 3.41943L59.792 3.4256L59.8228 3.4441C59.9431 3.5175 60.0603 3.59567 60.1743 3.67843C60.3902 3.82951 60.6831 4.04843 61.0284 4.3321C61.7129 4.90251 62.6071 5.7566 63.5012 6.91593C65.2957 9.2531 67.0625 12.8174 67.0625 17.7292C67.0625 22.6409 65.2957 26.2083 63.5012 28.5424C62.6071 29.7018 61.7129 30.5558 61.0284 31.1263C60.6565 31.4358 60.2674 31.724 59.8629 31.9896L59.8228 32.0143L59.792 32.0328L59.7827 32.0389L59.7766 32.042C59.7766 32.042 59.7735 32.0451 58.5833 30.0625L59.7735 32.0451C59.2498 32.3423 58.6308 32.4235 58.0481 32.2714C57.4654 32.1194 56.965 31.746 56.6534 31.2307C56.3417 30.7154 56.2434 30.0989 56.3792 29.5122C56.5151 28.9256 56.8744 28.415 57.3808 28.0892L57.3962 28.0768L57.5196 27.9936C57.6429 27.9073 57.831 27.7685 58.0653 27.5743C58.5371 27.1796 59.1846 26.5691 59.8321 25.7243C61.1209 24.0531 62.4375 21.4508 62.4375 17.7292C62.4375 14.0076 61.1209 11.4083 59.8321 9.7341C59.3124 9.05488 58.7199 8.43452 58.0653 7.8841C57.851 7.70534 57.6277 7.53759 57.3962 7.38151L57.3808 7.37226C56.8588 7.05461 56.4837 6.54324 56.3376 5.9499C56.1914 5.35655 56.286 4.72947 56.6008 4.20568ZM30.8333 30.0625C34.1043 30.0625 37.2414 28.7631 39.5543 26.4502C41.8673 24.1372 43.1667 21.0002 43.1667 17.7292C43.1667 14.4582 41.8673 11.3211 39.5543 9.0082C37.2414 6.69525 34.1043 5.39585 30.8333 5.39585C27.5623 5.39585 24.4253 6.69525 22.1123 9.0082C19.7994 11.3211 18.5 14.4582 18.5 17.7292C18.5 21.0002 19.7994 24.1372 22.1123 26.4502C24.4253 28.7631 27.5623 30.0625 30.8333 30.0625Z" fill="#D3DEFB"/>
<path d="M58.4874 2.64123L57.2973 4.62381L59.8694 6.16789L61.0596 4.1853L58.4874 2.64123ZM56.6008 4.20568L59.1722 5.75086L59.1728 5.74988L56.6008 4.20568ZM59.7735 3.41326L61.4375 0.917038L61.3784 0.877629L61.3174 0.841063L59.7735 3.41326ZM59.792 3.4256L58.128 5.92183L58.1874 5.96139L58.2485 5.99809L59.792 3.4256ZM59.8228 3.4441L61.386 0.883503L61.3762 0.877518L61.3663 0.871608L59.8228 3.4441ZM60.1743 3.67843L58.4119 6.10616L58.4328 6.12132L58.4539 6.13613L60.1743 3.67843ZM61.0284 4.3321L62.949 2.02743L62.9408 2.02065L62.9326 2.01392L61.0284 4.3321ZM63.5012 6.91593L65.8808 5.08892L65.8768 5.08375L63.5012 6.91593ZM63.5012 28.5424L65.8768 30.3746L65.8796 30.371L63.5012 28.5424ZM61.0284 31.1263L62.9475 33.4321L62.949 33.4309L61.0284 31.1263ZM59.8629 31.9896L61.4352 34.5446L61.4727 34.5215L61.5094 34.4974L59.8629 31.9896ZM59.8228 32.0143L61.3662 34.5868L61.3807 34.5781L61.3951 34.5692L59.8228 32.0143ZM59.792 32.0328L58.2486 29.4602L58.1874 29.4969L58.1281 29.5365L59.792 32.0328ZM59.7827 32.0389L61.1244 34.7222L61.2913 34.6387L61.4467 34.5352L59.7827 32.0389ZM59.7766 32.042L58.4349 29.3587L57.999 29.5767L57.6545 29.9214L59.7766 32.042ZM59.7735 32.0451L61.2542 34.6542L63.9279 33.1368L62.3456 30.501L59.7735 32.0451ZM57.3808 28.0892L59.0041 30.6121L59.1342 30.5284L59.255 30.4317L57.3808 28.0892ZM57.3962 28.0768L55.7179 25.5903L55.617 25.6583L55.5221 25.7343L57.3962 28.0768ZM57.5196 27.9936L59.198 30.4802L59.2191 30.4659L59.24 30.4513L57.5196 27.9936ZM58.0653 27.5743L59.9799 29.8839L59.9903 29.8752L58.0653 27.5743ZM59.8321 25.7243L57.4565 23.8922L57.451 23.8993L59.8321 25.7243ZM59.8321 9.7341L57.4495 11.5572L57.4549 11.5641L59.8321 9.7341ZM58.0653 7.8841L59.9961 5.58795L59.9867 5.5801L58.0653 7.8841ZM57.3962 7.38151L59.0738 4.89437L59.008 4.84999L58.9399 4.80915L57.3962 7.38151ZM57.3808 7.37226L55.8214 9.93509L55.8292 9.93988L55.8371 9.94462L57.3808 7.37226ZM30.8333 30.0625L30.8333 33.0625L30.8333 30.0625ZM43.1667 17.7292L46.1667 17.7292L43.1667 17.7292ZM30.8333 5.39585V2.39585V5.39585ZM18.5 17.7292H15.5H18.5ZM59.1728 5.74988C59.079 5.9062 58.9269 6.01883 58.75 6.06301L57.2961 0.241826C55.9292 0.583216 54.7539 1.45358 54.0287 2.66148L59.1728 5.74988ZM58.75 6.06301C58.5731 6.10719 58.3859 6.0793 58.2295 5.98547L61.3174 0.841063C60.1095 0.115988 58.663 -0.099563 57.2961 0.241826L58.75 6.06301ZM58.1095 5.90949L58.1188 5.91566L61.4467 0.923204L61.4375 0.917038L58.1095 5.90949ZM58.1188 5.91566L58.128 5.92183L61.456 0.929371L61.4467 0.923204L58.1188 5.91566ZM58.2485 5.99809L58.2794 6.01659L61.3663 0.871608L61.3355 0.853108L58.2485 5.99809ZM58.2597 6.00469C58.3118 6.03648 58.3626 6.07033 58.4119 6.10616L61.9368 1.2507C61.7581 1.12101 61.5744 0.998518 61.386 0.883503L58.2597 6.00469ZM58.4539 6.13613C58.603 6.24047 58.8347 6.41248 59.1242 6.65028L62.9326 2.01392C62.5315 1.68438 62.1773 1.41856 61.8947 1.22074L58.4539 6.13613ZM59.1079 6.63676C59.651 7.08942 60.3855 7.78835 61.1257 8.74812L65.8768 5.08375C64.8287 3.72485 63.7748 2.71561 62.949 2.02743L59.1079 6.63676ZM61.1217 8.74294C62.5874 10.6519 64.0625 13.5895 64.0625 17.7292H70.0625C70.0625 12.0453 68.0041 7.85434 65.8808 5.08892L61.1217 8.74294ZM64.0625 17.7292C64.0625 21.8697 62.5868 24.8098 61.1229 26.7139L65.8796 30.371C68.0046 27.6069 70.0625 23.4122 70.0625 17.7292H64.0625ZM61.1257 26.7102C60.3855 27.67 59.651 28.3689 59.1079 28.8216L62.949 33.4309C63.7748 32.7427 64.8287 31.7335 65.8768 30.3746L61.1257 26.7102ZM59.1093 28.8204C58.8244 29.0576 58.5263 29.2784 58.2164 29.4818L61.5094 34.4974C62.0085 34.1697 62.4887 33.814 62.9475 33.4321L59.1093 28.8204ZM58.2906 29.4346L58.2505 29.4593L61.3951 34.5692L61.4352 34.5446L58.2906 29.4346ZM58.2795 29.4417L58.2486 29.4602L61.3354 34.6053L61.3662 34.5868L58.2795 29.4417ZM58.1281 29.5365L58.1188 29.5427L61.4467 34.5352L61.4559 34.529L58.1281 29.5365ZM58.4411 29.3556L58.4349 29.3587L61.1182 34.7253L61.1244 34.7222L58.4411 29.3556ZM59.7766 32.042C57.6545 29.9214 58.2746 29.4451 58.9967 29.1452C59.2258 29.093 59.8384 29.0427 60.2176 29.0746C60.7894 29.1596 61.1882 29.3893 61.3353 29.4787C61.6576 29.6747 61.8657 29.8882 61.9085 29.9313C62.0443 30.0686 62.1365 30.1897 62.1524 30.2102C62.2101 30.2851 62.2517 30.3467 62.2587 30.357C62.2845 30.395 62.3034 30.425 62.3056 30.4285C62.3156 30.4441 62.3202 30.4518 62.3125 30.4392C62.2996 30.4183 62.2667 30.3644 62.1927 30.2423C62.0461 30.0001 61.7501 29.509 61.1555 28.5184L56.0112 31.6066C56.6067 32.5986 56.9073 33.0973 57.0598 33.3492C57.1354 33.4741 57.1776 33.5434 57.2025 33.5838C57.2136 33.6019 57.2279 33.6249 57.2426 33.6481C57.2473 33.6554 57.2674 33.6872 57.2938 33.7261C57.3011 33.7369 57.3429 33.7987 57.4007 33.8737C57.4166 33.8943 57.5088 34.0155 57.6447 34.1527C57.6874 34.1959 57.8955 34.4093 58.2179 34.6053C58.3649 34.6947 58.7637 34.9244 59.3356 35.0094C59.7147 35.0414 60.3274 34.991 60.5564 34.9389C61.2786 34.639 61.8986 34.1626 59.7766 32.042ZM56.0112 31.6066L57.2014 33.5892L62.3456 30.501L61.1555 28.5184L56.0112 31.6066ZM58.2928 29.436C58.4485 29.3476 58.6325 29.3235 58.8057 29.3687L57.2904 35.1742C58.629 35.5236 60.0511 35.337 61.2542 34.6542L58.2928 29.436ZM58.8057 29.3687C58.979 29.4139 59.1277 29.5249 59.2204 29.6781L54.0864 32.7833C54.8024 33.967 55.9518 34.8248 57.2904 35.1742L58.8057 29.3687ZM59.2204 29.6781C59.313 29.8313 59.3423 30.0146 59.3019 30.189L53.4566 28.8355C53.1445 30.1832 53.3704 31.5996 54.0864 32.7833L59.2204 29.6781ZM59.3019 30.189C59.2615 30.3634 59.1547 30.5152 59.0041 30.6121L55.7576 25.5663C54.5941 26.3149 53.7686 27.4877 53.4566 28.8355L59.3019 30.189ZM59.255 30.4317L59.2704 30.4194L55.5221 25.7343L55.5066 25.7467L59.255 30.4317ZM59.0746 30.5634L59.198 30.4802L55.8412 25.507L55.7179 25.5903L59.0746 30.5634ZM59.24 30.4513C59.4259 30.3212 59.6791 30.1332 59.9799 29.8839L56.1508 25.2646C55.9829 25.4038 55.8599 25.4934 55.7992 25.5359L59.24 30.4513ZM59.9903 29.8752C60.5925 29.3714 61.4041 28.6049 62.2132 27.5492L57.451 23.8993C56.9651 24.5333 56.4817 24.9877 56.1403 25.2733L59.9903 29.8752ZM62.2077 27.5564C63.8317 25.4505 65.4375 22.2193 65.4375 17.7292H59.4375C59.4375 20.6822 58.4101 22.6557 57.4565 23.8922L62.2077 27.5564ZM65.4375 17.7292C65.4375 13.2379 63.8309 10.0107 62.2093 7.90412L57.4549 11.5641C58.4109 12.806 59.4375 14.7773 59.4375 17.7292H65.4375ZM62.2146 7.91104C61.562 7.05813 60.8181 6.27915 59.9961 5.58797L56.1346 10.1802C56.6218 10.5899 57.0627 11.0516 57.4496 11.5572L62.2146 7.91104ZM59.9867 5.5801C59.6942 5.33618 59.3895 5.10731 59.0738 4.89437L55.7187 9.86866C55.8658 9.96787 56.0077 10.0745 56.144 10.1881L59.9867 5.5801ZM58.9399 4.80915L58.9245 4.7999L55.8371 9.94462L55.8526 9.95387L58.9399 4.80915ZM58.9403 4.80944C59.0955 4.90388 59.207 5.05591 59.2505 5.23231L53.4246 6.66749C53.7604 8.03058 54.6221 9.20534 55.8214 9.93509L58.9403 4.80944ZM59.2505 5.23231C59.2939 5.4087 59.2658 5.59513 59.1722 5.75086L54.0293 2.66051C53.3062 3.86382 53.0888 5.30441 53.4246 6.66749L59.2505 5.23231ZM30.8333 33.0625C34.9 33.0625 38.8001 31.447 41.6756 28.5715L37.433 24.3288C35.6827 26.0792 33.3087 27.0625 30.8333 27.0625L30.8333 33.0625ZM41.6756 28.5715C44.5512 25.6959 46.1667 21.7958 46.1667 17.7292L40.1667 17.7292C40.1667 20.2045 39.1833 22.5785 37.433 24.3288L41.6756 28.5715ZM46.1667 17.7292C46.1667 13.6625 44.5512 9.76244 41.6756 6.88688L37.433 11.1295C39.1833 12.8799 40.1667 15.2538 40.1667 17.7292L46.1667 17.7292ZM41.6756 6.88688C38.8001 4.01132 34.9 2.39585 30.8333 2.39585V8.39585C33.3087 8.39585 35.6827 9.37918 37.433 11.1295L41.6756 6.88688ZM30.8333 2.39585C26.7667 2.39585 22.8666 4.01132 19.991 6.88688L24.2337 11.1295C25.984 9.37918 28.358 8.39585 30.8333 8.39585V2.39585ZM19.991 6.88688C17.1155 9.76244 15.5 13.6625 15.5 17.7292H21.5C21.5 15.2538 22.4833 12.8799 24.2337 11.1295L19.991 6.88688ZM15.5 17.7292C15.5 21.7958 17.1155 25.6959 19.991 28.5715L24.2337 24.3288C22.4833 22.5785 21.5 20.2045 21.5 17.7292H15.5ZM19.991 28.5715C22.8666 31.447 26.7667 33.0625 30.8333 33.0625L30.8333 27.0625C28.358 27.0625 25.984 26.0792 24.2337 24.3288L19.991 28.5715Z" fill="black" mask="url(#path-1-inside-1_3_25)"/>
<mask id="path-3-inside-2_3_25" fill="white">
<path d="M53.6069 9.5799C53.3464 9.42314 53.0575 9.31928 52.7569 9.27427C52.4562 9.22925 52.1496 9.24397 51.8546 9.31757C51.5597 9.39117 51.2821 9.52221 51.0378 9.7032C50.7935 9.88418 50.5874 10.1116 50.431 10.3723L51.2019 13.5297L51.2235 13.5451C51.5637 13.8009 51.8676 14.1017 52.1269 14.4392C52.8423 15.3844 53.2162 16.5441 53.1875 17.7292C53.216 18.9156 52.8409 20.0766 52.1238 21.0222C51.8655 21.3595 51.5626 21.6603 51.2235 21.9163L51.1988 21.9287C50.6861 22.2528 50.3213 22.7654 50.183 23.356C50.0447 23.9466 50.144 24.5679 50.4594 25.0859C50.7749 25.604 51.2813 25.9774 51.8694 26.1256C52.4576 26.2739 53.0805 26.1851 53.6038 25.8784H53.61L53.6161 25.8753L53.6254 25.8692L53.647 25.8537L53.7086 25.8167C53.9434 25.6666 54.167 25.4996 54.3777 25.3172C54.7755 24.9873 55.2842 24.5002 55.793 23.8403C57.1303 22.0863 57.8414 19.9347 57.8125 17.7292C57.8414 15.5236 57.1303 13.372 55.793 11.618C55.2462 10.9085 54.6003 10.2814 53.8751 9.75565C53.8203 9.71667 53.7648 9.67864 53.7086 9.64157L53.647 9.60457L53.6254 9.59224L53.6161 9.58607L53.61 9.58299C53.61 9.58299 53.6069 9.5799 52.4167 11.5625L53.6069 9.5799Z"/>
</mask>
<path d="M53.6069 9.5799C53.3464 9.42314 53.0575 9.31928 52.7569 9.27427C52.4562 9.22925 52.1496 9.24397 51.8546 9.31757C51.5597 9.39117 51.2821 9.52221 51.0378 9.7032C50.7935 9.88418 50.5874 10.1116 50.431 10.3723L51.2019 13.5297L51.2235 13.5451C51.5637 13.8009 51.8676 14.1017 52.1269 14.4392C52.8423 15.3844 53.2162 16.5441 53.1875 17.7292C53.216 18.9156 52.8409 20.0766 52.1238 21.0222C51.8655 21.3595 51.5626 21.6603 51.2235 21.9163L51.1988 21.9287C50.6861 22.2528 50.3213 22.7654 50.183 23.356C50.0447 23.9466 50.144 24.5679 50.4594 25.0859C50.7749 25.604 51.2813 25.9774 51.8694 26.1256C52.4576 26.2739 53.0805 26.1851 53.6038 25.8784H53.61L53.6161 25.8753L53.6254 25.8692L53.647 25.8537L53.7086 25.8167C53.9434 25.6666 54.167 25.4996 54.3777 25.3172C54.7755 24.9873 55.2842 24.5002 55.793 23.8403C57.1303 22.0863 57.8414 19.9347 57.8125 17.7292C57.8414 15.5236 57.1303 13.372 55.793 11.618C55.2462 10.9085 54.6003 10.2814 53.8751 9.75565C53.8203 9.71667 53.7648 9.67864 53.7086 9.64157L53.647 9.60457L53.6254 9.59224L53.6161 9.58607L53.61 9.58299C53.61 9.58299 53.6069 9.5799 52.4167 11.5625L53.6069 9.5799Z" fill="#D3DEFB"/>
<path d="M54.8907 25.1078L53.7037 23.1253L51.1298 24.6664L52.3168 26.649L54.8907 25.1078ZM53.6069 9.5799L56.179 11.124L57.7214 8.55467L55.1538 7.00947L53.6069 9.5799ZM50.431 10.3723L47.8579 8.82989L47.2244 9.88677L47.5166 11.0838L50.431 10.3723ZM51.2019 13.5297L48.2875 14.2412L48.5517 15.3233L49.4581 15.9708L51.2019 13.5297ZM51.2235 13.5451L53.0263 11.1472L52.997 11.1252L52.9672 11.1039L51.2235 13.5451ZM52.1269 14.4392L54.5189 12.6287L54.5125 12.6203L54.5061 12.6118L52.1269 14.4392ZM53.1875 17.7292L50.1884 17.6567L50.1867 17.7289L50.1884 17.801L53.1875 17.7292ZM52.1238 21.0222L54.5059 22.8458L54.5141 22.835L52.1238 21.0222ZM51.2235 21.9163L52.565 24.5997L52.8111 24.4766L53.0307 24.3109L51.2235 21.9163ZM51.1988 21.9287L49.8573 19.2453L49.7227 19.3126L49.5956 19.3929L51.1988 21.9287ZM53.6038 25.8784V22.8784H52.7895L52.087 23.2901L53.6038 25.8784ZM53.61 25.8784V28.8784H54.3176L54.9506 28.5622L53.61 25.8784ZM53.6161 25.8753L54.9567 28.5591L55.1242 28.4754L55.28 28.3716L53.6161 25.8753ZM53.6254 25.8692L55.2893 28.3654L55.3297 28.3385L55.3691 28.3103L53.6254 25.8692ZM53.647 25.8537L52.1035 23.2812L52.0007 23.3429L51.9032 23.4126L53.647 25.8537ZM53.7086 25.8167L55.2521 28.3892L55.2889 28.3671L55.3251 28.344L53.7086 25.8167ZM54.3777 25.3172L52.4624 23.0082L52.4381 23.0284L52.4142 23.0491L54.3777 25.3172ZM55.793 23.8403L58.1688 25.6721L58.1737 25.6657L58.1786 25.6593L55.793 23.8403ZM57.8125 17.7292L54.8128 17.69L54.8123 17.7292L54.8128 17.7683L57.8125 17.7292ZM55.793 11.618L58.1786 9.79905L58.1739 9.79285L58.1692 9.78668L55.793 11.618ZM53.8751 9.75565L55.6359 7.32672L55.6246 7.31855L55.6133 7.31048L53.8751 9.75565ZM53.7086 9.64157L55.3614 7.13788L55.3075 7.10231L55.2521 7.06908L53.7086 9.64157ZM53.647 9.60457L55.1904 7.03208L55.1631 7.01566L55.1354 6.99983L53.647 9.60457ZM53.6254 9.59224L51.9613 12.0884L52.0473 12.1457L52.137 12.197L53.6254 9.59224ZM53.6161 9.58607L55.2802 7.08989L55.1246 6.98614L54.9573 6.90253L53.6161 9.58607ZM53.61 9.58299L51.4876 11.7032L51.8324 12.0484L52.2688 12.2665L53.61 9.58299ZM55.1538 7.00947C54.5553 6.64934 53.8918 6.41075 53.2011 6.30734L52.3127 12.2412C52.2233 12.2278 52.1374 12.1969 52.06 12.1503L55.1538 7.00947ZM53.2011 6.30734C52.5103 6.20392 51.806 6.23773 51.1284 6.40681L52.5809 12.2283C52.4932 12.2502 52.4021 12.2546 52.3127 12.2412L53.2011 6.30734ZM51.1284 6.40681C50.4507 6.57589 49.8131 6.87693 49.2519 7.29271L52.8238 12.1137C52.7511 12.1675 52.6686 12.2064 52.5809 12.2283L51.1284 6.40681ZM49.2519 7.29271C48.6907 7.7085 48.217 8.23086 47.8579 8.82989L53.0042 11.9148C52.9577 11.9923 52.8964 12.0599 52.8238 12.1137L49.2519 7.29271ZM47.5166 11.0838L48.2875 14.2412L54.1163 12.8181L53.3454 9.6608L47.5166 11.0838ZM49.4581 15.9708L49.4797 15.9862L52.9672 11.1039L52.9456 11.0885L49.4581 15.9708ZM49.4206 15.943C49.5438 16.0355 49.6538 16.1444 49.7477 16.2666L54.5061 12.6118C54.0814 12.0589 53.5836 11.5662 53.0263 11.1472L49.4206 15.943ZM49.7348 16.2498C50.0408 16.654 50.2007 17.1499 50.1884 17.6567L56.1867 17.8016C56.2317 15.9383 55.6438 14.1148 54.5189 12.6287L49.7348 16.2498ZM50.1884 17.801C50.2006 18.3084 50.0402 18.8049 49.7335 19.2093L54.5141 22.835C55.6417 21.3482 56.2314 19.5228 56.1867 17.6573L50.1884 17.801ZM49.7417 19.1985C49.6483 19.3205 49.5388 19.4292 49.4162 19.5218L53.0307 24.3109C53.5864 23.8915 54.0826 23.3986 54.5059 22.8458L49.7417 19.1985ZM49.8819 19.233L49.8573 19.2453L52.5403 24.612L52.565 24.5997L49.8819 19.233ZM49.5956 19.3929C48.4178 20.1376 47.5797 21.3152 47.262 22.672L53.104 24.04C53.0629 24.2156 52.9544 24.368 52.802 24.4644L49.5956 19.3929ZM47.262 22.672C46.9443 24.0287 47.1724 25.456 47.8971 26.6462L53.0218 23.5257C53.1156 23.6797 53.1451 23.8644 53.104 24.04L47.262 22.672ZM47.8971 26.6462C48.6218 27.8363 49.7851 28.6941 51.1363 29.0347L52.6026 23.2166C52.7774 23.2607 52.928 23.3717 53.0218 23.5257L47.8971 26.6462ZM51.1363 29.0347C52.4875 29.3752 53.9184 29.1712 55.1206 28.4667L52.087 23.2901C52.2426 23.1989 52.4277 23.1725 52.6026 23.2166L51.1363 29.0347ZM53.6038 28.8784H53.61V22.8784H53.6038V28.8784ZM54.9506 28.5622L54.9567 28.5591L52.2755 23.1915L52.2693 23.1946L54.9506 28.5622ZM55.28 28.3716L55.2893 28.3654L51.9615 23.3729L51.9522 23.379L55.28 28.3716ZM55.3691 28.3103L55.3907 28.2949L51.9032 23.4126L51.8816 23.428L55.3691 28.3103ZM55.1904 28.4262L55.2521 28.3892L52.1652 23.2442L52.1035 23.2812L55.1904 28.4262ZM55.3251 28.344C55.6817 28.1159 56.0212 27.8624 56.3412 27.5854L52.4142 23.0491C52.3128 23.1369 52.2051 23.2172 52.0921 23.2895L55.3251 28.344ZM56.293 27.6263C56.8374 27.1747 57.5068 26.5307 58.1688 25.6721L53.4172 22.0085C53.0616 22.4696 52.7135 22.7999 52.4624 23.0082L56.293 27.6263ZM58.1786 25.6593C59.9226 23.3719 60.8499 20.5661 60.8123 17.69L54.8128 17.7683C54.8329 19.3033 54.338 20.8007 53.4073 22.0214L58.1786 25.6593ZM60.8123 17.7683C60.8499 14.8922 59.9226 12.0864 58.1786 9.79905L53.4073 13.4369C54.338 14.6576 54.8329 16.155 54.8128 17.69L60.8123 17.7683ZM58.1692 9.78668C57.4469 8.84957 56.5938 8.02112 55.6359 7.32672L52.1144 12.1846C52.6068 12.5416 53.0455 12.9675 53.4168 13.4493L58.1692 9.78668ZM55.6133 7.31048C55.5303 7.25153 55.4464 7.19399 55.3614 7.13788L52.0559 12.1453C52.0832 12.1633 52.1102 12.1818 52.137 12.2008L55.6133 7.31048ZM55.2521 7.06908L55.1904 7.03208L52.1035 12.1771L52.1652 12.2141L55.2521 7.06908ZM55.1354 6.99983L55.1138 6.9875L52.137 12.197L52.1586 12.2093L55.1354 6.99983ZM55.2894 7.09606L55.2802 7.08989L51.9521 12.0823L51.9613 12.0884L55.2894 7.09606ZM54.9573 6.90253L54.9511 6.89945L52.2688 12.2665L52.275 12.2696L54.9573 6.90253ZM53.61 9.58299C55.7324 7.46274 55.1124 6.98632 54.3904 6.68627C54.1613 6.63408 53.5486 6.58361 53.1694 6.61552C52.5974 6.70044 52.1985 6.93015 52.0514 7.01961C51.729 7.21563 51.5209 7.42907 51.4781 7.47223C51.3422 7.60951 51.25 7.73066 51.2341 7.75128C51.1762 7.82628 51.1345 7.88814 51.1272 7.89891C51.1008 7.93782 51.0806 7.96962 51.076 7.97692C51.0613 8.0001 51.047 8.02312 51.0359 8.04121C51.011 8.08163 50.9688 8.15088 50.8932 8.27579C50.7407 8.52771 50.4401 9.02643 49.8446 10.0184L54.9888 13.1066C55.5835 12.116 55.8795 11.6249 56.0261 11.3827C56.1 11.2606 56.133 11.2067 56.1459 11.1858C56.1536 11.1732 56.1489 11.1809 56.139 11.1965C56.1368 11.2 56.1178 11.23 56.092 11.268C56.085 11.2783 56.0435 11.3399 55.9858 11.4148C55.9699 11.4354 55.8777 11.5565 55.7418 11.6938C55.6991 11.7369 55.4909 11.9503 55.1685 12.1464C55.0214 12.2358 54.6225 12.4655 54.0505 12.5505C53.6713 12.5824 53.0586 12.5319 52.8295 12.4797C52.1075 12.1797 51.4876 11.7032 53.61 9.58299ZM54.9888 13.1066L56.179 11.124L51.0347 8.03583L49.8446 10.0184L54.9888 13.1066Z" fill="black" mask="url(#path-3-inside-2_3_25)"/>
<path opacity="0.5" d="M30.8334 65.5625C24.7182 65.5625 20.2032 65.1765 16.8705 64.5018C13.5313 63.8259 11.48 62.8798 10.1972 61.8352C7.7473 59.84 7.66669 57.1488 7.66669 53.1875C7.66669 50.1391 9.87961 47.0733 14.1271 44.6841C18.3275 42.3213 24.2311 40.8125 30.8334 40.8125C37.4356 40.8125 43.3392 42.3213 47.5396 44.6841C51.7871 47.0733 54 50.1391 54 53.1875C54 57.1488 53.9194 59.84 51.4695 61.8352C50.1867 62.8798 48.1354 63.8259 44.7962 64.5018C41.4635 65.1765 36.9485 65.5625 30.8334 65.5625Z" fill="#D3DEFB" stroke="black" stroke-width="3"/>
</svg>
