<svg width="61" height="65" viewBox="0 0 61 65" fill="none" xmlns="http://www.w3.org/2000/svg">
<path d="M54.3353 30.3564C53.4744 30.8409 52.4588 30.9724 51.5026 30.7228C50.5419 30.4721 49.717 29.8565 49.2032 29.007L50.4867 28.2307L49.2032 29.007C48.6894 28.1575 48.5272 27.1411 48.7512 26.1738C48.9686 25.2349 49.5333 24.4142 50.33 23.8756L50.34 23.8676L50.3904 23.8336L50.5025 23.7579C50.5952 23.6926 50.746 23.5813 50.9391 23.4213C51.3454 23.0811 51.9095 22.5494 52.4748 21.8118L52.4776 21.8082C53.5988 20.3544 54.7708 18.0665 54.7708 14.7292C54.7708 11.3924 53.5992 9.10719 52.4768 7.64909L52.4741 7.64563C52.0215 7.05413 51.5057 6.51381 50.9358 6.03429C50.7701 5.89618 50.5978 5.76612 50.4195 5.64456C49.5666 5.12022 48.954 4.28125 48.7144 3.3087L50.1709 2.9499L48.7144 3.30869C48.4734 2.33048 48.6294 1.29665 49.1483 0.433095L54.3353 30.3564ZM54.3353 30.3564L54.3704 30.3388L54.394 30.3231L54.3353 30.3564ZM51.7198 1.97827L51.7201 1.97778C51.831 1.79304 52.0108 1.65993 52.2198 1.60772C52.4203 1.55765 52.632 1.58591 52.8119 1.68611L52.823 1.69349L52.8536 1.71184L52.8746 1.72439C52.8761 1.72532 52.8776 1.72625 52.8791 1.72718C52.9637 1.77896 53.0462 1.83404 53.1264 1.8923L53.1369 1.89988L53.1474 1.90728C53.3291 2.03446 53.59 2.22883 53.9056 2.48793C54.5187 2.99921 55.3305 3.77401 56.1454 4.83025C57.7753 6.95331 59.3958 10.2041 59.3958 14.7292C59.3958 19.255 57.7748 22.5087 56.1457 24.6278C55.3897 25.6077 54.6363 26.3454 54.0419 26.8552C53.9415 26.6881 53.8292 26.5012 53.7037 26.2921C53.7033 26.2915 53.703 26.291 53.7027 26.2905L52.4166 27.0625L51.7685 27.4516C51.6604 27.2711 51.6264 27.0557 51.6739 26.8506C51.7216 26.6445 51.8479 26.4651 52.0258 26.3506L52.0908 26.3088L52.1191 26.2862L52.1921 26.2369L52.2026 26.2298L52.2131 26.2225C52.3677 26.1142 52.5884 25.9509 52.8559 25.7291L52.8611 25.7247C53.3978 25.2758 54.1267 24.5879 54.8546 23.6385C56.3106 21.75 57.7708 18.8337 57.7708 14.7292C57.7708 10.6242 56.3103 7.71154 54.8555 5.82109C54.2696 5.05561 53.6018 4.35644 52.864 3.73603L52.8593 3.7321C52.6059 3.52076 52.3419 3.32245 52.0683 3.13794L52.0354 3.11574L52.0014 3.09531L51.9939 3.09085C51.9929 3.09025 51.9919 3.08964 51.9909 3.08904C51.809 2.9773 51.6784 2.79845 51.6273 2.5911C51.576 2.38263 51.6092 2.1623 51.7198 1.97827ZM32.327 22.3895C30.2953 24.4211 27.5398 25.5625 24.6666 25.5625C21.7935 25.5625 19.038 24.4211 17.0063 22.3895C14.9747 20.3579 13.8333 17.6024 13.8333 14.7292C13.8333 11.856 14.9747 9.1005 17.0063 7.06886C19.038 5.03721 21.7935 3.89585 24.6666 3.89585C27.5398 3.89585 30.2953 5.03721 32.327 7.06886C34.3586 9.1005 35.5 11.856 35.5 14.7292C35.5 17.6024 34.3586 20.3579 32.327 22.3895Z" fill="#D3DEFB" stroke="black" stroke-width="3"/>
<path d="M47.5361 9.33452C47.6451 9.15291 47.7441 8.98803 47.8341 8.83833C48.0477 9.05689 48.2487 9.288 48.4358 9.53058C49.5683 11.0174 50.1704 12.8406 50.146 14.7096L50.1457 14.7292L50.146 14.7487C50.1704 16.6176 49.5683 18.4409 48.4359 19.9277C48.0046 20.4865 47.5772 20.8941 47.2534 21.1627L47.2412 21.1728L47.2293 21.1831C47.0789 21.3133 46.9197 21.4328 46.7527 21.5409L46.6787 21.5843C46.4948 21.692 46.276 21.7232 46.0693 21.6711C45.8627 21.619 45.6847 21.4878 45.5739 21.3058C45.4631 21.1238 45.4282 20.9055 45.4768 20.698C45.5211 20.5087 45.6316 20.3423 45.7874 20.2281L45.8506 20.1965L45.9604 20.1136C46.4078 19.7759 46.8074 19.3791 47.1481 18.934L47.1482 18.934L47.1523 18.9286C48.0674 17.722 48.5494 16.2427 48.5212 14.7293C48.5496 13.2177 48.0691 11.74 47.1562 10.534L47.1563 10.5339L47.1498 10.5255C46.9172 10.2227 46.6573 9.94227 46.3737 9.68771L46.073 8.45624L47.5361 9.33452Z" fill="#D3DEFB" stroke="black" stroke-width="3"/>
<path opacity="0.5" d="M24.6667 62.5625C18.5516 62.5625 14.0365 62.1765 10.7039 61.5018C7.36459 60.8259 5.31327 59.8798 4.03054 58.8352C1.58062 56.84 1.5 54.1488 1.5 50.1875C1.5 47.1391 3.71293 44.0733 7.96042 41.6841C12.1608 39.3213 18.0645 37.8125 24.6667 37.8125C31.2689 37.8125 37.1725 39.3213 41.3729 41.6841C45.6204 44.0733 47.8333 47.1391 47.8333 50.1875C47.8333 54.1488 47.7527 56.84 45.3028 58.8352C44.0201 59.8798 41.9688 60.8259 38.6295 61.5018C35.2968 62.1765 30.7818 62.5625 24.6667 62.5625Z" fill="#D3DEFB" stroke="black" stroke-width="3"/>
</svg>
