<svg width="58" height="57" viewBox="0 0 58 57" fill="none" xmlns="http://www.w3.org/2000/svg">
<path d="M1.50001 21.9222V21.9186V3.13124C1.50001 2.63428 1.65475 2.28149 1.97169 1.97215C2.29039 1.66112 2.66737 1.49877 3.20489 1.50001V1.50001H3.20834H22.4583C23.0002 1.50001 23.3793 1.66406 23.6982 1.97529C24.015 2.28444 24.1679 2.63504 24.1667 3.12762V3.13124V21.9186C24.1667 22.4156 24.0119 22.7684 23.695 23.0777C23.3763 23.3887 22.9993 23.5511 22.4618 23.5499H22.4583H3.20834C2.66652 23.5499 2.28738 23.3858 1.96849 23.0746C1.65171 22.7654 1.49882 22.4148 1.50001 21.9222ZM33.5833 21.9222V21.9186V3.13124C33.5833 2.63428 33.7381 2.28149 34.055 1.97215C34.3737 1.66112 34.7507 1.49877 35.2882 1.50001H35.2917H54.5417C55.0835 1.50001 55.4626 1.66406 55.7815 1.97529C56.0983 2.28445 56.2512 2.63504 56.25 3.12762V3.13124V21.9186C56.25 22.4156 56.0953 22.7684 55.7783 23.0777C55.4596 23.3887 55.0827 23.5511 54.5451 23.5499H54.5417H35.2917C34.7499 23.5499 34.3707 23.3858 34.0518 23.0746C33.735 22.7654 33.5821 22.4148 33.5833 21.9222ZM1.50001 53.2346V53.2309V34.4435C1.50001 33.9466 1.65475 33.5938 1.97169 33.2845C2.29039 32.9734 2.66737 32.8111 3.20489 32.8123H3.20834H22.4583C23.0002 32.8123 23.3793 32.9764 23.6982 33.2876C24.015 33.5967 24.1679 33.9473 24.1667 34.4399V34.4435V53.2309C24.1667 53.7279 24.0119 54.0807 23.695 54.39C23.3763 54.701 22.9993 54.8634 22.4618 54.8622H22.4583H3.20834C2.66652 54.8622 2.28737 54.6981 1.96849 54.3869C1.65171 54.0777 1.49882 53.7271 1.50001 53.2346ZM43.2083 53.2346V53.2309V46.9685V45.4685H41.7083H35.2115C34.6698 45.4685 34.3195 45.3056 34.0378 45.0177C33.7394 44.7126 33.5833 44.3529 33.5833 43.8372C33.5833 43.3403 33.7381 42.9875 34.055 42.6782C34.3737 42.3671 34.7507 42.2048 35.2882 42.206H35.2917H41.7083H43.2083V40.706V34.3653C43.2083 33.8692 43.3613 33.5444 43.655 33.2708C43.9708 32.9765 44.3574 32.8123 44.9167 32.8123C45.4585 32.8123 45.8376 32.9764 46.1565 33.2876C46.4733 33.5967 46.6262 33.9473 46.625 34.4399V34.4435V40.706V42.206H48.125H54.6219C55.1635 42.206 55.5138 42.3689 55.7955 42.6568C56.094 42.9618 56.25 43.3215 56.25 43.8372C56.25 44.3342 56.0953 44.687 55.7783 44.9963C55.4596 45.3074 55.0826 45.4697 54.5451 45.4685H54.5417H48.125H46.625V46.9685V53.3092C46.625 53.8053 46.472 54.1301 46.1784 54.4037C45.8626 54.698 45.476 54.8622 44.9167 54.8622C44.3749 54.8622 43.9957 54.6981 43.6768 54.3869C43.36 54.0777 43.2071 53.7271 43.2083 53.2346ZM41.7083 53.2309V48.4685V46.9685H40.2083H35.2115C34.3024 46.9685 33.5538 46.6679 32.9656 46.0667C32.3774 45.4655 32.0833 44.7223 32.0833 43.8372C32.0833 42.9501 32.3913 42.2059 33.0073 41.6047C33.6233 41.0035 34.3848 40.7039 35.2917 40.706H40.2083H41.7083V39.206V34.3653C41.7083 33.4781 42.0163 32.7475 42.6323 32.1734C43.2483 31.5993 44.0098 31.3123 44.9167 31.3123C45.8257 31.3123 46.5882 31.6129 47.2042 32.2141C47.8202 32.8153 48.1272 33.5585 48.125 34.4435V39.206V40.706H49.625H54.6219C55.5309 40.706 56.2795 41.0066 56.8677 41.6078C57.4559 42.209 57.75 42.9521 57.75 43.8372C57.75 44.7244 57.442 45.4686 56.826 46.0698C56.21 46.671 55.4486 46.9706 54.5417 46.9685H49.625H48.125V48.4685L41.7083 53.2309Z" fill="#D3DEFB" stroke="black" stroke-width="3"/>
</svg>
