<svg width="30" height="30" viewBox="0 0 30 30" fill="none" xmlns="http://www.w3.org/2000/svg">
<path d="M26.5534 0.62854C27.4129 0.62854 28.2371 0.96996 28.8448 1.57769C29.4526 2.18543 29.794 3.00969 29.794 3.86915V26.5534C29.794 27.4129 29.4526 28.2371 28.8448 28.8449C28.2371 29.4526 27.4129 29.794 26.5534 29.794H3.86912C3.00966 29.794 2.18539 29.4526 1.57766 28.8449C0.96993 28.2371 0.62851 27.4129 0.62851 26.5534V3.86915C0.62851 3.00969 0.96993 2.18543 1.57766 1.57769C2.18539 0.96996 3.00966 0.62854 3.86912 0.62854H26.5534ZM25.7432 25.7433V17.1557C25.7432 15.7547 25.1867 14.4112 24.1961 13.4206C23.2055 12.43 21.862 11.8735 20.461 11.8735C19.0838 11.8735 17.4797 12.716 16.7019 13.9799V12.1813H12.1813V25.7433H16.7019V17.7552C16.7019 16.5075 17.7065 15.4867 18.9542 15.4867C19.5558 15.4867 20.1328 15.7257 20.5582 16.1511C20.9836 16.5766 21.2226 17.1535 21.2226 17.7552V25.7433H25.7432ZM6.91529 9.63744C7.63724 9.63744 8.32962 9.35064 8.84012 8.84015C9.35061 8.32965 9.63741 7.63727 9.63741 6.91532C9.63741 5.40844 8.42218 4.17701 6.91529 4.17701C6.18905 4.17701 5.49255 4.46551 4.97901 4.97904C4.46548 5.49258 4.17698 6.18908 4.17698 6.91532C4.17698 8.42221 5.40841 9.63744 6.91529 9.63744ZM9.16752 25.7433V12.1813H4.67927V25.7433H9.16752Z" fill="#D3DEFB"/>
</svg>
