<svg width="34" height="34" viewBox="0 0 34 34" fill="none" xmlns="http://www.w3.org/2000/svg">
<path d="M29.8333 0.5C30.8058 0.5 31.7384 0.886308 32.4261 1.57394C33.1137 2.26158 33.5 3.19421 33.5 4.16667V29.8333C33.5 30.8058 33.1137 31.7384 32.4261 32.4261C31.7384 33.1137 30.8058 33.5 29.8333 33.5H4.16667C3.19421 33.5 2.26158 33.1137 1.57394 32.4261C0.886308 31.7384 0.5 30.8058 0.5 29.8333V4.16667C0.5 3.19421 0.886308 2.26158 1.57394 1.57394C2.26158 0.886308 3.19421 0.5 4.16667 0.5H29.8333ZM28.9167 28.9167V19.2C28.9167 17.6149 28.287 16.0947 27.1661 14.9739C26.0453 13.853 24.5251 13.2233 22.94 13.2233C21.3817 13.2233 19.5667 14.1767 18.6867 15.6067V13.5717H13.5717V28.9167H18.6867V19.8783C18.6867 18.4667 19.8233 17.3117 21.235 17.3117C21.9157 17.3117 22.5686 17.5821 23.0499 18.0634C23.5313 18.5448 23.8017 19.1976 23.8017 19.8783V28.9167H28.9167ZM7.61333 10.6933C8.4302 10.6933 9.21361 10.3688 9.79122 9.79122C10.3688 9.21361 10.6933 8.4302 10.6933 7.61333C10.6933 5.90833 9.31833 4.515 7.61333 4.515C6.7916 4.515 6.00353 4.84143 5.42248 5.42248C4.84143 6.00353 4.515 6.7916 4.515 7.61333C4.515 9.31833 5.90833 10.6933 7.61333 10.6933ZM10.1617 28.9167V13.5717H5.08333V28.9167H10.1617Z" fill="black"/>
</svg>
