<svg width="27" height="28" viewBox="0 0 27 28" fill="none" xmlns="http://www.w3.org/2000/svg">
<path d="M7.86514 0.954224H19.0011C23.2433 0.954224 26.6901 4.40106 26.6901 8.64331V19.7792C26.6901 21.8185 25.88 23.7742 24.4381 25.2162C22.9961 26.6582 21.0403 27.4683 19.0011 27.4683H7.86514C3.62289 27.4683 0.176056 24.0215 0.176056 19.7792V8.64331C0.176056 6.60404 0.986154 4.64829 2.42814 3.2063C3.87012 1.76432 5.82587 0.954224 7.86514 0.954224ZM7.6 3.60563C6.33424 3.60563 5.12033 4.10845 4.22531 5.00348C3.33028 5.8985 2.82746 7.11241 2.82746 8.37817V20.0444C2.82746 22.6825 4.96185 24.8169 7.6 24.8169H19.2662C20.532 24.8169 21.7459 24.3141 22.6409 23.4191C23.5359 22.524 24.0387 21.3101 24.0387 20.0444V8.37817C24.0387 5.74002 21.9043 3.60563 19.2662 3.60563H7.6ZM20.393 5.59419C20.8325 5.59419 21.254 5.76878 21.5648 6.07955C21.8756 6.39032 22.0502 6.81182 22.0502 7.25132C22.0502 7.69082 21.8756 8.11232 21.5648 8.42309C21.254 8.73386 20.8325 8.90845 20.393 8.90845C19.9535 8.90845 19.532 8.73386 19.2213 8.42309C18.9105 8.11232 18.7359 7.69082 18.7359 7.25132C18.7359 6.81182 18.9105 6.39032 19.2213 6.07955C19.532 5.76878 19.9535 5.59419 20.393 5.59419ZM13.4331 7.58275C15.1911 7.58275 16.8771 8.28111 18.1202 9.52419C19.3633 10.7673 20.0616 12.4533 20.0616 14.2113C20.0616 15.9693 19.3633 17.6553 18.1202 18.8983C16.8771 20.1414 15.1911 20.8398 13.4331 20.8398C11.6751 20.8398 9.98912 20.1414 8.74603 18.8983C7.50294 17.6553 6.80458 15.9693 6.80458 14.2113C6.80458 12.4533 7.50294 10.7673 8.74603 9.52419C9.98912 8.28111 11.6751 7.58275 13.4331 7.58275ZM13.4331 10.2342C12.3783 10.2342 11.3667 10.6532 10.6209 11.399C9.875 12.1449 9.45599 13.1565 9.45599 14.2113C9.45599 15.2661 9.875 16.2777 10.6209 17.0235C11.3667 17.7694 12.3783 18.1884 13.4331 18.1884C14.4879 18.1884 15.4995 17.7694 16.2453 17.0235C16.9912 16.2777 17.4102 15.2661 17.4102 14.2113C17.4102 13.1565 16.9912 12.1449 16.2453 11.399C15.4995 10.6532 14.4879 10.2342 13.4331 10.2342Z" fill="#D3DEFB"/>
</svg>
