<svg width="27" height="27" viewBox="0 0 27 27" fill="none" xmlns="http://www.w3.org/2000/svg">
<path d="M13.4859 0.954224C11.745 0.954224 10.0211 1.29713 8.41267 1.96336C6.80426 2.62958 5.34281 3.60609 4.11178 4.83712C1.6256 7.3233 0.228882 10.6953 0.228882 14.2113C0.228882 20.0709 4.03365 25.0423 9.2967 26.8055C9.95955 26.9115 10.1717 26.5005 10.1717 26.1426V23.9022C6.49946 24.6976 5.7173 22.1257 5.7173 22.1257C5.10747 20.5879 4.24577 20.1769 4.24577 20.1769C3.03938 19.355 4.33857 19.3815 4.33857 19.3815C5.66427 19.4743 6.36689 20.747 6.36689 20.747C7.52026 22.7621 9.46904 22.1655 10.2247 21.8473C10.344 20.9856 10.6887 20.4023 11.0599 20.0709C8.11682 19.7395 5.02793 18.5993 5.02793 13.5484C5.02793 12.0769 5.5317 10.897 6.39341 9.95576C6.26084 9.62433 5.79684 8.2456 6.52598 6.4559C6.52598 6.4559 7.63957 6.09796 10.1717 7.80811C11.219 7.51646 12.3591 7.37063 13.4859 7.37063C14.6128 7.37063 15.7529 7.51646 16.8002 7.80811C19.3323 6.09796 20.4459 6.4559 20.4459 6.4559C21.175 8.2456 20.711 9.62433 20.5784 9.95576C21.4402 10.897 21.9439 12.0769 21.9439 13.5484C21.9439 18.6126 18.8418 19.7262 15.8855 20.0576C16.3627 20.4686 16.8002 21.2773 16.8002 22.5102V26.1426C16.8002 26.5005 17.0123 26.9248 17.6884 26.8055C22.9515 25.029 26.743 20.0709 26.743 14.2113C26.743 12.4703 26.4001 10.7464 25.7338 9.13801C25.0676 7.5296 24.0911 6.06815 22.8601 4.83712C21.629 3.60609 20.1676 2.62958 18.5592 1.96336C16.9508 1.29713 15.2269 0.954224 13.4859 0.954224Z" fill="#D3DEFB"/>
</svg>
